# xmcd CD database file
#
# Track frame offsets:
#       150
#       17017
#       36551
#       51592
#       78258
#       101814
#       119817
#       136285
#       154351
#       178421
#       194688
#       219912
#
# Disc length: 3184 seconds
#
# Revision: 0
# Processed by: cddbd v1.5.2PL0 Copyright (c) Steve Scherf et al.
# Submitted via: jack 3.1.1
#
DISCID=bb0c6e0c
DTITLE=Eiffel - À tout moment
DYEAR=2009
DGENRE=Rock
TTITLE0=Minouche
TTITLE1=À tout moment la rue
TTITLE2=Le coeur Australie
TTITLE3=Je m'obstine
TTITLE4=Sous ton aile
TTITLE5=Cet instant-là
TTITLE6=Mort j'appelle
TTITLE7=Nous sommes du hasard
TTITLE8=Clash
TTITLE9=Ma blonde
TTITLE10=Mille voix rauques
TTITLE11=Ma nébuleuse mélancolique
EXTD=
EXTT0=
EXTT1=
EXTT2=
EXTT3=
EXTT4=
EXTT5=
EXTT6=
EXTT7=
EXTT8=
EXTT9=
EXTT10=
EXTT11=
PLAYORDER=
